<svg xmlns="http://www.w3.org/2000/svg" viewBox="0 0 800 450" role="img" aria-labelledby="title desc">
  <title id="title">Reciprocity: offer useful help with no obligation</title>
  <desc id="desc">A free meal-planning guide is available beside a separate optional volunteer invitation.</desc>
  <rect width="800" height="450" rx="28" fill="#f5efe5"/>
  <rect x="103" y="84" width="259" height="290" rx="16" fill="#fff" stroke="#405d57" stroke-width="5"/>
  <rect x="103" y="84" width="259" height="72" rx="14" fill="#497c70"/>
  <text x="132" y="129" fill="#fff" font-family="Arial,sans-serif" font-size="24" font-weight="700">MEAL GUIDE</text>
  <circle cx="231" cy="230" r="54" fill="#f0d276"/>
  <path d="M202 231c10-37 61-37 73 0-11 34-61 34-73 0" fill="#f8f6ed" stroke="#c17a53" stroke-width="6"/>
  <path d="M221 225c8-19 18-19 26 0m-22 15c12-10 22-8 30 3" fill="none" stroke="#5e9060" stroke-width="7" stroke-linecap="round"/>
  <text x="144" y="335" fill="#405d57" font-family="Arial,sans-serif" font-size="19">Free to take and use</text>
  <path d="M397 229h81" stroke="#92a69f" stroke-width="8" stroke-linecap="round"/>
  <path d="M461 209l24 20-24 20" fill="none" stroke="#92a69f" stroke-width="8" stroke-linecap="round" stroke-linejoin="round"/>
  <rect x="510" y="104" width="220" height="111" rx="16" fill="#fff" stroke="#c17a53" stroke-width="4"/>
  <text x="537" y="147" fill="#243b53" font-family="Arial,sans-serif" font-size="21" font-weight="700">Volunteer?</text>
  <text x="537" y="180" fill="#52616b" font-family="Arial,sans-serif" font-size="18">Optional invitation</text>
  <rect x="510" y="238" width="220" height="111" rx="16" fill="#dcebe4"/>
  <text x="537" y="282" fill="#315e51" font-family="Arial,sans-serif" font-size="21" font-weight="700">No obligation</text>
  <text x="537" y="315" fill="#52616b" font-family="Arial,sans-serif" font-size="18">A gift is just a gift</text>
</svg>
